HIERARCHY
ROOT pelvis
{
  OFFSET 0 100 0
  CHANNELS 6 Xposition Yposition Zposition Zrotation Xrotation Yrotation
  JOINT pelvis_right_femur
  {
    OFFSET -10.78128 -3.44521 -0.5502486
    CHANNELS 3 Zrotation Xrotation Yrotation
    JOINT right_femur_tibia
    {
      OFFSET -0.8047443 -44.0398 -0.1307829
      CHANNELS 3 Zrotation Xrotation Yrotation
      JOINT right_tibia_foot
      {
        OFFSET 3.006224 -47.83518 -5
        CHANNELS 3 Zrotation Xrotation Yrotation
        End Site
        {
          OFFSET 0 -5 15
        }
      }
    }
  }
  JOINT pelvis_left_femur
  {
    OFFSET 10.78128 -3.44521 -0.5502486
    CHANNELS 3 Zrotation Xrotation Yrotation
    JOINT left_femur_tibia
    {
      OFFSET 0.8047443 -44.0398 -0.1307829
      CHANNELS 3 Zrotation Xrotation Yrotation
      JOINT left_tibia_foot
      {
        OFFSET -4.370144 -48.10324 -4.275266
        CHANNELS 3 Zrotation Xrotation Yrotation
        End Site
        {
          OFFSET 0 -5 15
        }
      }
    }
  }
  JOINT pelvis_spine1
  {
    OFFSET 0 6.468898 -3.129235
    CHANNELS 3 Zrotation Xrotation Yrotation
    JOINT spine1
    {
      OFFSET 0 23.15396 4.99043
      CHANNELS 3 Zrotation Xrotation Yrotation
      JOINT spine2
      {
        OFFSET 0 20.79997 -5.064912
        CHANNELS 3 Zrotation Xrotation Yrotation
        JOINT neck
        {
          OFFSET 0 14.38658 9.616178
          CHANNELS 3 Zrotation Xrotation Yrotation
          End Site
          {
            OFFSET 0 20 0
          }
        }
      }
      JOINT right_manubrium
      {
        OFFSET -5.722621 16.35077 3.967754
        CHANNELS 3 Zrotation Xrotation Yrotation
        JOINT right_clavicle
        {
          OFFSET -13.16364 1.694482 -4.693211
          CHANNELS 3 Zrotation Xrotation Yrotation
          JOINT right_humerus
          {
            OFFSET -28.5034 -0.3100689 -2.792744
            CHANNELS 3 Zrotation Xrotation Yrotation
            JOINT right_radius
            {
              OFFSET -25.15693 0.02248979 -1.271978
              CHANNELS 3 Zrotation Xrotation Yrotation
              End Site
              {
                OFFSET -15 0 0
              }
            }
          }
        }
      }
      JOINT left_manubrium
      {
        OFFSET 5.722621 16.35077 3.967754
        CHANNELS 3 Zrotation Xrotation Yrotation
        JOINT left_clavicle
        {
          OFFSET 13.16364 1.694482 -4.693211
          CHANNELS 3 Zrotation Xrotation Yrotation
          JOINT left_humerus
          {
            OFFSET 29.39168 -1.063119 -2.237045
            CHANNELS 3 Zrotation Xrotation Yrotation
            JOINT left_radius
            {
              OFFSET 24.59957 -0.9528479 0.9047498
              CHANNELS 3 Zrotation Xrotation Yrotation
              End Site
              {
                OFFSET 15 -0 -0
              }
            }
          }
        }
      }
    }
  }
}
MOTION
Frames: 21
Frame Time: 0.0416666666667
-1498.256 101.3448 -3.322705 2.528767 7.554279 154.0359 -0.5395848 21.4811 -3.339615 -0 23.47396 -0 -12.4896 -6.953211 3.578979 -2.373439 -18.61079 -12.98457 -0 12.21547 -0 -5.274116 -5.719378 21.00143 -1.583491 0.3809207 5.762841 -1.928885 7.903624 -0.0618206 2.042979 25.16358 7.540504 5.226522 -16.66473 8.176275 1.36016 -19.589 9.111269 80.04692 29.68134 -0.9031206 -0 0 18.55828 -25.38199 9.447714 14.24125 6.264949 -15.52823 -3.083884 -96.38677 15.81537 26.5122 -0 0 6.940991 9.968684 16.76716 -0.07166867
-1496.731 101.4075 -9.254092 2.588033 8.643781 153.8962 -1.31075 19.84477 -3.289352 -0 29.84196 -0 -13.59231 -1.772572 4.178662 -3.543411 -16.31874 -14.03691 -0 15.91031 -0 -4.603849 -6.630141 21.39325 -1.944929 0.5829379 5.346563 -2.414834 8.57049 0.2355862 2.3883 25.63256 7.601916 5.478042 -16.87966 8.48598 1.466434 -18.86286 9.238189 81.38318 29.44528 -1.779852 -0 0 16.78052 -25.92597 9.254616 14.13969 6.118614 -15.79172 -3.780143 -95.84016 16.14323 25.05768 -0 0 6.6009 10.82115 17.18893 -0.6558191
-1495.235 101.8766 -14.92597 2.732972 9.598657 153.9466 -1.769093 17.54016 -3.412452 -0 35.38029 -0 -14.68668 2.810062 4.754288 -4.315795 -13.66863 -14.6134 -0 18.24721 -0 -3.728364 -7.449274 21.49488 -2.166385 0.7318385 4.848072 -2.720231 9.372108 0.2375294 2.526048 25.90784 7.645159 5.659949 -17.13228 8.582825 1.519061 -18.49174 9.497609 82.81293 28.95695 -2.900691 -0 0 15.30946 -26.2825 9.068459 13.96292 5.966722 -16.35778 -4.607198 -95.11263 15.9684 23.71194 -0 0 5.881453 11.88425 17.39582 -1.690167
-1493.786 102.5822 -20.33827 2.918874 10.38805 154.1357 -1.943246 14.68197 -3.863189 -0 39.12775 -0 -15.69835 6.306102 5.255315 -4.733761 -10.91356 -14.77697 -0 19.49212 -0 -2.93827 -8.246999 21.279 -2.226342 0.8841432 4.336662 -2.887728 10.13711 0.03439734 2.481363 26.04973 7.707297 5.849995 -17.2765 8.464447 1.529287 -18.31784 9.807921 84.1445 28.30921 -4.140585 -0 0 14.19195 -26.49876 8.8612 13.59903 5.959872 -17.19716 -5.509835 -94.29503 15.35979 22.34588 -0 0 4.901725 13.14621 17.49985 -3.20634
-1492.387 103.3521 -25.50873 3.075366 10.98653 154.3923 -1.920813 11.38906 -4.691928 -0 40.53931 -0 -16.54783 8.493875 5.657421 -4.878797 -8.331777 -14.58501 -0 20.23039 -0 -2.371092 -9.021049 20.72286 -2.150686 1.048848 3.916036 -2.976953 10.78988 -0.3029203 2.288315 26.07571 7.809202 6.136734 -17.18069 8.118044 1.58678 -18.20727 10.13131 85.19161 27.73452 -5.426382 -0 0 13.47352 -26.68749 8.725484 12.97261 6.181639 -18.31761 -6.458692 -93.43113 14.30305 20.88244 -0 0 3.699861 14.6674 17.58639 -5.294864
-1491.031 104.0533 -30.47103 3.122802 11.34358 154.6376 -1.769361 7.78965 -5.828171 -0 39.45007 -0 -17.15258 9.424589 5.949112 -4.832756 -6.221458 -14.02089 -0 21.16885 -0 -1.96295 -9.673923 19.83263 -1.998946 1.186092 3.705261 -3.015457 11.36832 -0.7642588 1.963129 25.9351 7.939723 6.588948 -16.79802 7.49617 1.801721 -18.11931 10.4895 85.84028 27.48758 -6.776507 -0 0 13.21857 -26.92869 8.757718 12.06085 6.637515 -19.74847 -7.434278 -92.55699 12.68095 19.37478 -0 0 2.245022 16.51309 17.57722 -8.036585
-1489.696 104.6133 -35.27726 3.007191 11.41106 154.79 -1.477839 4.031568 -7.072976 -0 35.98608 -0 -17.45937 9.395044 6.097205 -4.654847 -4.83933 -12.9734 -0 23.02344 -0 -1.487482 -10.03972 18.66571 -1.83409 1.227727 3.813456 -2.97557 12.00415 -1.405137 1.507934 25.5298 8.028849 7.218723 -16.20193 6.517421 2.19887 -18.13536 10.94431 86.15781 27.63715 -8.325489 -0 0 13.4896 -27.16341 8.907452 10.87221 7.256238 -21.51685 -8.425205 -91.73337 10.35529 18.02348 -0 0 0.4560681 18.63344 17.18395 -11.35823
-1488.336 105.0252 -40.00105 2.742542 11.21093 154.7701 -0.9474819 0.3712986 -8.102411 -0 30.5633 -0 -17.48936 8.870843 6.022066 -4.364518 -4.31598 -11.30624 -0 26.38191 -0 -0.671374 -9.941917 17.35752 -1.6962 1.107748 4.29611 -2.784275 12.8578 -2.302554 0.940457 24.78628 7.943607 7.940913 -15.58062 5.129268 2.631862 -18.43136 11.55241 86.44901 27.91529 -10.2707 -0 0 14.26667 -27.17162 8.922893 9.445617 7.87697 -23.59027 -9.428314 -91.03898 7.356478 17.13255 0 0 -1.750493 20.73084 16.05491 -14.85732
-1486.881 105.3368 -44.72563 2.456383 10.89937 154.5097 -0.03642802 -2.672591 -8.528123 -0 24.02816 -0 -17.33216 8.276907 5.585036 -3.934074 -4.595136 -9.041413 -0 31.42357 -0 0.5775624 -9.291304 16.13883 -1.575548 0.811167 5.094333 -2.37942 13.98683 -3.454233 0.3369904 23.7692 7.545469 8.541065 -15.17279 3.447803 2.789458 -19.17923 12.29319 87.14314 27.75741 -12.67604 -0 0 15.35829 -26.68659 8.514772 7.893832 8.247594 -25.7666 -10.43105 -90.54474 4.170668 17.02498 0 0 -4.319897 22.21609 14.18015 -17.6893
-1485.263 105.6232 -49.50283 2.384349 10.71577 153.9685 1.319277 -4.236145 -8.044984 -0 17.76202 -0 -17.03811 7.612108 4.622943 -3.307915 -5.523537 -6.57902 -0 37.50771 -0 1.945793 -8.154882 15.31863 -1.402621 0.4179283 6.010511 -1.803692 15.19267 -4.660976 -0.1394721 22.74733 6.809383 8.706722 -15.13483 1.889588 2.38142 -20.39503 12.99955 88.41543 26.71725 -15.13602 -0 0 16.44991 -25.61825 7.757448 6.484895 8.099867 -27.55838 -11.33824 -90.31858 1.870029 17.95179 0 0 -6.815384 22.43375 12.28458 -18.74722
-1483.466 105.9453 -54.31545 2.722525 10.7575 153.1505 2.93825 -3.434209 -6.628207 -0 13.28364 -0 -16.52596 6.259292 3.087939 -2.435132 -7.08874 -4.621734 -0 42.88768 -0 2.868857 -6.704483 15.15964 -1.103343 0.05549936 6.803978 -1.230876 16.06396 -5.56325 -0.3014312 22.04012 5.880434 8.192846 -15.43193 1.021693 1.425697 -21.89602 13.41834 89.86732 25.0172 -16.74838 -0 0 17.40565 -24.18747 7.2763 5.648507 7.331204 -28.31767 -11.89566 -90.47594 1.554389 20.02428 0 0 -8.422058 21.06233 11.45982 -17.22992
-1481.545 106.2928 -59.12164 3.404901 10.79144 152.1244 4.381465 -0.185606 -4.639844 -0 11.28584 -0 -15.70402 3.553574 1.253716 -1.296451 -9.407318 -3.606948 -0 45.01388 -0 3.085433 -5.137506 15.60606 -0.691005 -0.2506962 7.357792 -0.8131343 16.3206 -5.942973 -0.1227441 21.69302 4.965682 7.045062 -15.89459 1.06021 0.3044858 -23.50048 13.43895 90.77932 23.40737 -16.80399 -0 0 18.54497 -22.81762 7.674693 5.782112 6.141343 -27.76018 -11.80973 -91.13531 3.244768 23.15006 0 0 -8.610248 18.32643 11.99269 -13.29399
-1479.584 106.5551 -63.95323 4.126524 10.43139 151.0278 5.251815 4.412281 -2.695893 -0 11.21553 -0 -14.63416 -0.4228246 -0.3033055 0.03201849 -12.27103 -3.361947 -0 41.92036 -0 2.768297 -3.704707 16.23983 -0.2603014 -0.5746354 7.67385 -0.5432173 15.98918 -5.904561 0.1855567 21.48002 4.257283 5.626091 -16.35988 1.696273 -0.535247 -25.08793 13.1685 90.65193 22.46466 -15.35984 -0 0 20.26002 -21.90049 8.870068 6.936174 4.938405 -26.26168 -11.01257 -92.20917 5.748778 26.84451 0 0 -7.614383 14.99692 13.06583 -8.253316
-1477.629 106.5732 -68.91855 4.622416 9.533691 149.9982 5.451104 9.065016 -1.386457 -0 11.93626 -0 -13.45479 -5.029162 -1.102129 1.307314 -15.09214 -3.596971 -0 33.96988 -0 2.01983 -2.699615 16.79087 0.07577496 -0.8651049 7.720891 -0.3539046 15.10076 -5.593651 0.4016745 21.34017 3.981824 4.392851 -16.71223 2.593008 -0.8451785 -26.2851 12.7134 89.34964 22.51269 -12.87012 -0 0 22.25623 -21.60054 10.30138 8.704399 4.138646 -24.33885 -9.634936 -93.40837 7.974045 30.11183 0 0 -5.752044 12.08277 13.94294 -3.882396
-1475.668 106.218 -74.1301 4.784109 8.266102 149.0984 5.091382 13.25442 -1.017029 -0 12.43306 -0 -12.28989 -9.637106 -1.026056 2.213143 -17.4902 -4.283508 -0 23.53649 -0 0.7494971 -2.28432 17.35963 0.2184955 -0.9654194 7.482037 -0.2221851 13.60475 -5.004842 0.4744019 21.44671 4.289117 3.656095 -16.88968 3.635104 -0.6245466 -26.61148 12.08729 86.98245 23.65734 -9.707332 -0 0 23.78215 -21.82784 11.38548 10.56106 3.979566 -22.2217 -7.840973 -94.51315 9.665377 32.0552 0 0 -3.046495 10.17168 14.52461 -1.218881
-1473.652 105.4431 -79.67008 4.612988 6.908613 148.3198 4.340953 16.87372 -1.441553 -0 12.29403 -0 -11.30288 -13.57144 -0.2616022 2.54984 -19.35568 -5.423793 -0 13.38368 -0 -0.9626742 -2.353614 17.99308 0.1491197 -0.8682974 7.082421 -0.152247 11.68958 -4.161062 0.4700517 21.85232 5.056771 3.470254 -16.91044 4.707635 -0.1054 -26.01289 11.32494 84.02582 25.43031 -6.332766 -0 0 24.44967 -22.32775 11.70261 12.17219 4.384611 -20.08621 -5.897781 -95.42864 10.9506 32.55547 -0 0 0.1365076 9.220929 14.83366 -0.1365702
-1471.524 104.3262 -85.54591 4.210844 5.804401 147.622 3.333708 19.72967 -2.22109 -0 12.0067 -0 -10.69895 -15.99619 0.8349492 2.225182 -20.58484 -6.970482 -0 6.163824 -0 -2.805186 -2.729633 18.63028 -0.09110435 -0.6687723 6.695086 -0.2079221 9.78497 -3.149976 0.5309214 22.48265 5.982473 3.70356 -16.83039 5.711189 0.4356734 -24.73498 10.51962 81.26613 27.188 -3.382703 -0 0 24.20319 -22.91602 11.27861 13.36524 5.067108 -18.17695 -4.171584 -96.1006 12.06917 31.94414 -0 0 3.061073 8.906854 14.98526 0.08220697
-1469.268 103.0819 -91.63904 3.777101 5.349867 146.9754 2.164524 21.58652 -2.921207 -0 12.77572 -0 -10.64601 -16.07703 1.889168 1.230474 -21.06603 -8.823226 -0 3.803659 -0 -4.366137 -3.378329 19.31097 -0.4695045 -0.3945993 6.403569 -0.5008732 8.347305 -2.065185 0.8065816 23.27863 6.774496 4.166948 -16.69962 6.619154 0.8555417 -23.06377 9.805783 79.45656 28.57253 -1.387872 -0 0 23.0785 -23.59632 10.55353 14.05641 5.726982 -16.71918 -3.019233 -96.51296 13.26297 30.57282 -0 0 5.199735 8.94496 15.27855 0.08239763
-1466.919 102.0071 -97.75208 3.523843 5.728023 146.4014 0.9524671 22.30441 -3.296256 -0 15.76205 -0 -11.16209 -13.51243 2.703291 -0.2420944 -20.67504 -10.74565 -0 6.038676 -0 -5.277077 -4.292561 20.06636 -0.937543 -0.05440869 6.170626 -1.046366 7.669359 -1.049282 1.302884 24.14293 7.27006 4.674725 -16.59567 7.39688 1.13275 -21.36967 9.319085 78.97059 29.41033 -0.5437244 -0 0 21.31695 -24.36844 9.938039 14.29465 6.154411 -15.84215 -2.625295 -96.66721 14.51339 28.84746 -0 0 6.45244 9.206519 15.85835 0.1152998
-1464.534 101.3536 -103.7245 3.522752 6.682756 145.9661 -0.1567822 21.90855 -3.361288 -0 21.00762 -0 -12.07191 -9.001245 3.34127 -1.808736 -19.35808 -12.43221 -0 10.44762 -0 -5.41047 -5.323795 20.77311 -1.411572 0.2740354 5.897909 -1.690922 7.728545 -0.2755372 1.853194 24.91391 7.496562 5.095313 -16.61397 7.995316 1.307085 -20.00207 9.117756 79.60372 29.69065 -0.6677993 -0 0 19.32805 -25.1183 9.550481 14.27454 6.283679 -15.52489 -2.871038 -96.52867 15.53603 27.1402 -0 0 6.932393 9.700271 16.53436 0.0423494
-1462.166 101.2198 -109.477 3.695958 7.779686 145.7244 -1.041157 20.58103 -3.299656 -0 27.35016 -0 -13.15163 -3.791503 3.941101 -3.127029 -17.28479 -13.67885 -0 14.6044 -0 -4.91263 -6.284114 21.27128 -1.816056 0.5129598 5.523837 -2.244179 8.277952 0.157472 2.276303 25.47327 7.582647 5.390209 -16.783 8.388541 1.42946 -19.10031 9.166873 80.82998 29.57143 -1.393923 -0 0 17.4521 -25.73263 9.324745 14.18359 6.186919 -15.64767 -3.48345 -96.08495 16.07761 25.61458 -0 0 6.79027 10.45523 17.05126 -0.3711295
